<?xml version="1.0" encoding="utf-8"?>
<!-- Generator: Adobe Illustrator 26.2.1, SVG Export Plug-In . SVG Version: 6.00 Build 0)  -->
<svg version="1.1" id="Layer_1" xmlns="http://www.w3.org/2000/svg" xmlns:xlink="http://www.w3.org/1999/xlink" x="0px" y="0px"
	 viewBox="0 0 512 512" style="enable-background:new 0 0 512 512;" xml:space="preserve">
<style type="text/css">
	.st0{fill:#FFFFFF;}
</style>
<g transform="translate(0.000000,96.000000) scale(0.100000,-0.100000)">
	<path class="st0" d="M2224.6,489.9c-85.3-26.6-186.5-74.6-229.2-111.9c-48-37.3-239.8-69.3-447.7-69.3
		c-394.4-5.3-554.3-79.9-767.5-373.1c-85.3-111.9-111.9-229.2-111.9-501c-5.3-271.8-32-399.8-122.6-543.7
		c-234.5-367.8-85.3-831.5,325.1-1034c271.8-127.9,325.1-69.3,250.5,266.5c-80,346.4-32,554.3,165.2,746.2
		c138.6,133.2,202.5,154.6,474.4,154.6c234.5,0,335.8,26.7,426.4,106.6c85.3,74.6,191.9,106.6,373.1,106.6s287.8-32,373.1-106.6
		c90.6-80,191.9-106.6,426.4-106.6c255.8,0,335.8-21.3,453.1-133.2c213.2-197.2,250.5-335.8,186.6-708.9
		c-64-410.4-16-474.4,255.8-330.5c410.4,223.9,549,671.6,319.8,1039.3c-90.6,143.9-117.3,271.8-122.6,543.7
		c0,271.8-26.6,389.1-111.9,501c-213.2,287.8-373.1,367.8-756.9,373.1c-245.2,0-405.1,32-501,95.9
		C2917.5,511.2,2437.8,559.2,2224.6,489.9z"/>
	<path class="st0" d="M2405.9-1237c-42.6-48-58.6-421.1-48-1231.2c16-1039.4,26.7-1167.3,111.9-1220.6c64-42.6,117.3-42.6,186.5,0
		c80,53.3,90.6,181.2,106.6,1220.6c10.7,1199.2-5.3,1305.8-202.5,1305.8C2507.1-1162.4,2437.8-1194.4,2405.9-1237z"/>
	<path class="st0" d="M1547.7-1455.6c-53.3-64-53.3-127.9-10.7-282.5c64-213.2,159.9-1050,186.6-1577.7
		c10.7-351.8,117.3-485,293.1-373.1c186.6,122.6,58.6,1988.1-154.6,2243.9C1782.2-1349,1627.7-1359.6,1547.7-1455.6z"/>
	<path class="st0" d="M3258.7-1444.9c-117.3-143.9-223.9-804.8-234.5-1487.1c-10.7-613,0-703.6,85.3-756.9
		c170.6-111.9,277.2,21.3,287.8,373.1c26.6,527.7,122.6,1364.5,186.6,1577.7c42.6,154.6,42.6,218.5-10.7,282.5
		C3493.2-1359.6,3338.6-1349,3258.7-1444.9z"/>
</g>
</svg>
