<?xml version="1.0" encoding="utf-8"?>
<!-- Generator: Adobe Illustrator 26.2.1, SVG Export Plug-In . SVG Version: 6.00 Build 0)  -->
<svg version="1.1" id="Layer_1" xmlns="http://www.w3.org/2000/svg" xmlns:xlink="http://www.w3.org/1999/xlink" x="0px" y="0px"
	 viewBox="0 0 512 512" style="enable-background:new 0 0 512 512;" xml:space="preserve">
<style type="text/css">
	.st0{fill:#FFFFFF;}
</style>
<g transform="translate(0.000000,100.000000) scale(0.100000,-0.100000)">
	<path class="st0" d="M542-333.4c-143.4-41-230.4-92.2-230.4-138.2c0-81.9-10.2-81.9,640-20.5l384,35.8L941.4-666.2
		c-481.3-245.8-809-501.8-809-614.4c0-51.2,122.9-230.4,271.4-399.4c1111-1305.6,2370.6-1587.2,3768.3-834.6
		c650.2,348.2,911.4,619.5,716.8,737.3c-30.7,25.6-20.5,61.4,41,102.4c158.7,117.8,20.5,199.7-220.2,133.1
		c-522.2-143.4-926.7-20.5-1617.9,491.5C2487.6-599.7,2211.2-446.1,1822-343.7C1489.2-256.6,864.6-251.5,542-333.4z M2211.2-707.2
		c169-81.9,169-87,97.3-230.4c-138.2-266.2-56.3-563.2,184.3-691.2c240.6-122.9,486.4-71.7,660.5,133.1c71.7,87,87,81.9,302.1-56.3
		l230.4-148.5l-215-199.7c-527.4-506.9-1361.9-368.6-1653.8,276.5c-122.9,261.1-117.8,506.9,5.1,783.4
		C1929.6-599.7,1960.3-589.4,2211.2-707.2z"/>
</g>
</svg>
