<?xml version="1.0" encoding="utf-8"?>
<!-- Generator: Adobe Illustrator 26.2.1, SVG Export Plug-In . SVG Version: 6.00 Build 0)  -->
<svg version="1.1" id="Layer_1" xmlns="http://www.w3.org/2000/svg" xmlns:xlink="http://www.w3.org/1999/xlink" x="0px" y="0px"
	 viewBox="0 0 512 512" style="enable-background:new 0 0 512 512;" xml:space="preserve">
<style type="text/css">
	.st0{fill:#FFFFFF;}
</style>
<g transform="translate(0.000000,96.000000) scale(0.100000,-0.100000)">
	<path class="st0" d="M2309.5,524.1C1664.6-291.4,1104.9-1245.5,934.3-1831.8C598.6-2972.4,1510-4070.4,2703.9-3974.5
		c1071.3,85.3,1785.5,1108.6,1481.7,2142.7c-122.6,431.7-405.1,975.4-810.2,1572.3C3013,268.2,2608,801.2,2560,801.2
		C2544,801.2,2432.1,678.6,2309.5,524.1z M2773.2-1645.3v-213.2h213.2h213.2v-213.2v-213.2h-213.2h-213.2v-213.2v-213.2H2560h-213.2
		v213.2v213.2h-213.2h-213.2v213.2v213.2h213.2h213.2v213.2v213.2H2560h213.2V-1645.3z"/>
</g>
</svg>
